<?xml version="1.0" encoding="UTF-8"?>
<svg width="48" height="40" viewbox="0 0 48 40" xmlns="http://www.w3.org/2000/svg">
<rect x="0" y="0" width="4" height="4" fill="#a04020"/>
<rect x="0" y="4" width="4" height="4" fill="#c85028"/>
<rect x="0" y="8" width="4" height="4" fill="#fa6432"/>
<rect x="0" y="12" width="4" height="4" fill="#fa825a"/>
<rect x="0" y="16" width="4" height="4" fill="#fa9a7a"/>
<rect x="0" y="20" width="4" height="4" fill="#be735a"/>
<rect x="0" y="24" width="4" height="4" fill="#d2785a"/>
<rect x="0" y="28" width="4" height="4" fill="#ea7e5a"/>
<rect x="0" y="32" width="4" height="4" fill="#f09678"/>
<rect x="0" y="36" width="4" height="4" fill="#f5aa91"/>
<rect x="4" y="0" width="4" height="4" fill="#a08020"/>
<rect x="4" y="4" width="4" height="4" fill="#c8a028"/>
<rect x="4" y="8" width="4" height="4" fill="#fac832"/>
<rect x="4" y="12" width="4" height="4" fill="#fad25a"/>
<rect x="4" y="16" width="4" height="4" fill="#fada7a"/>
<rect x="4" y="20" width="4" height="4" fill="#bea55a"/>
<rect x="4" y="24" width="4" height="4" fill="#d2b45a"/>
<rect x="4" y="28" width="4" height="4" fill="#eac65a"/>
<rect x="4" y="32" width="4" height="4" fill="#f0d278"/>
<rect x="4" y="36" width="4" height="4" fill="#f5dc91"/>
<rect x="8" y="0" width="4" height="4" fill="#80a020"/>
<rect x="8" y="4" width="4" height="4" fill="#a0c828"/>
<rect x="8" y="8" width="4" height="4" fill="#c8fa32"/>
<rect x="8" y="12" width="4" height="4" fill="#d2fa5a"/>
<rect x="8" y="16" width="4" height="4" fill="#dafa7a"/>
<rect x="8" y="20" width="4" height="4" fill="#a5be5a"/>
<rect x="8" y="24" width="4" height="4" fill="#b4d25a"/>
<rect x="8" y="28" width="4" height="4" fill="#c6ea5a"/>
<rect x="8" y="32" width="4" height="4" fill="#d2f078"/>
<rect x="8" y="36" width="4" height="4" fill="#dcf591"/>
<rect x="12" y="0" width="4" height="4" fill="#40a020"/>
<rect x="12" y="4" width="4" height="4" fill="#50c828"/>
<rect x="12" y="8" width="4" height="4" fill="#64fa32"/>
<rect x="12" y="12" width="4" height="4" fill="#82fa5a"/>
<rect x="12" y="16" width="4" height="4" fill="#9afa7a"/>
<rect x="12" y="20" width="4" height="4" fill="#73be5a"/>
<rect x="12" y="24" width="4" height="4" fill="#78d25a"/>
<rect x="12" y="28" width="4" height="4" fill="#7eea5a"/>
<rect x="12" y="32" width="4" height="4" fill="#96f078"/>
<rect x="12" y="36" width="4" height="4" fill="#aaf591"/>
<rect x="16" y="0" width="4" height="4" fill="#20a040"/>
<rect x="16" y="4" width="4" height="4" fill="#28c850"/>
<rect x="16" y="8" width="4" height="4" fill="#32fa64"/>
<rect x="16" y="12" width="4" height="4" fill="#5afa82"/>
<rect x="16" y="16" width="4" height="4" fill="#7afa9a"/>
<rect x="16" y="20" width="4" height="4" fill="#5abe73"/>
<rect x="16" y="24" width="4" height="4" fill="#5ad278"/>
<rect x="16" y="28" width="4" height="4" fill="#5aea7e"/>
<rect x="16" y="32" width="4" height="4" fill="#78f096"/>
<rect x="16" y="36" width="4" height="4" fill="#91f5aa"/>
<rect x="20" y="0" width="4" height="4" fill="#20a080"/>
<rect x="20" y="4" width="4" height="4" fill="#28c8a0"/>
<rect x="20" y="8" width="4" height="4" fill="#32fac8"/>
<rect x="20" y="12" width="4" height="4" fill="#5afad2"/>
<rect x="20" y="16" width="4" height="4" fill="#7afada"/>
<rect x="20" y="20" width="4" height="4" fill="#5abea5"/>
<rect x="20" y="24" width="4" height="4" fill="#5ad2b4"/>
<rect x="20" y="28" width="4" height="4" fill="#5aeac6"/>
<rect x="20" y="32" width="4" height="4" fill="#78f0d2"/>
<rect x="20" y="36" width="4" height="4" fill="#91f5dc"/>
<rect x="24" y="0" width="4" height="4" fill="#2080a0"/>
<rect x="24" y="4" width="4" height="4" fill="#28a0c8"/>
<rect x="24" y="8" width="4" height="4" fill="#32c8fa"/>
<rect x="24" y="12" width="4" height="4" fill="#5ad2fa"/>
<rect x="24" y="16" width="4" height="4" fill="#7adafa"/>
<rect x="24" y="20" width="4" height="4" fill="#5aa5be"/>
<rect x="24" y="24" width="4" height="4" fill="#5ab4d2"/>
<rect x="24" y="28" width="4" height="4" fill="#5ac6ea"/>
<rect x="24" y="32" width="4" height="4" fill="#78d2f0"/>
<rect x="24" y="36" width="4" height="4" fill="#91dcf5"/>
<rect x="28" y="0" width="4" height="4" fill="#2040a0"/>
<rect x="28" y="4" width="4" height="4" fill="#2850c8"/>
<rect x="28" y="8" width="4" height="4" fill="#3264fa"/>
<rect x="28" y="12" width="4" height="4" fill="#5a82fa"/>
<rect x="28" y="16" width="4" height="4" fill="#7a9afa"/>
<rect x="28" y="20" width="4" height="4" fill="#5a73be"/>
<rect x="28" y="24" width="4" height="4" fill="#5a78d2"/>
<rect x="28" y="28" width="4" height="4" fill="#5a7eea"/>
<rect x="28" y="32" width="4" height="4" fill="#7896f0"/>
<rect x="28" y="36" width="4" height="4" fill="#91aaf5"/>
<rect x="32" y="0" width="4" height="4" fill="#4020a0"/>
<rect x="32" y="4" width="4" height="4" fill="#5028c8"/>
<rect x="32" y="8" width="4" height="4" fill="#6432fa"/>
<rect x="32" y="12" width="4" height="4" fill="#825afa"/>
<rect x="32" y="16" width="4" height="4" fill="#9a7afa"/>
<rect x="32" y="20" width="4" height="4" fill="#735abe"/>
<rect x="32" y="24" width="4" height="4" fill="#785ad2"/>
<rect x="32" y="28" width="4" height="4" fill="#7e5aea"/>
<rect x="32" y="32" width="4" height="4" fill="#9678f0"/>
<rect x="32" y="36" width="4" height="4" fill="#aa91f5"/>
<rect x="36" y="0" width="4" height="4" fill="#8020a0"/>
<rect x="36" y="4" width="4" height="4" fill="#a028c8"/>
<rect x="36" y="8" width="4" height="4" fill="#c832fa"/>
<rect x="36" y="12" width="4" height="4" fill="#d25afa"/>
<rect x="36" y="16" width="4" height="4" fill="#da7afa"/>
<rect x="36" y="20" width="4" height="4" fill="#a55abe"/>
<rect x="36" y="24" width="4" height="4" fill="#b45ad2"/>
<rect x="36" y="28" width="4" height="4" fill="#c65aea"/>
<rect x="36" y="32" width="4" height="4" fill="#d278f0"/>
<rect x="36" y="36" width="4" height="4" fill="#dc91f5"/>
<rect x="40" y="0" width="4" height="4" fill="#a02080"/>
<rect x="40" y="4" width="4" height="4" fill="#c828a0"/>
<rect x="40" y="8" width="4" height="4" fill="#fa32c8"/>
<rect x="40" y="12" width="4" height="4" fill="#fa5ad2"/>
<rect x="40" y="16" width="4" height="4" fill="#fa7ada"/>
<rect x="40" y="20" width="4" height="4" fill="#be5aa5"/>
<rect x="40" y="24" width="4" height="4" fill="#d25ab4"/>
<rect x="40" y="28" width="4" height="4" fill="#ea5ac6"/>
<rect x="40" y="32" width="4" height="4" fill="#f078d2"/>
<rect x="40" y="36" width="4" height="4" fill="#f591dc"/>
<rect x="44" y="0" width="4" height="4" fill="#a02040"/>
<rect x="44" y="4" width="4" height="4" fill="#c82850"/>
<rect x="44" y="8" width="4" height="4" fill="#fa3264"/>
<rect x="44" y="12" width="4" height="4" fill="#fa5a82"/>
<rect x="44" y="16" width="4" height="4" fill="#fa7a9a"/>
<rect x="44" y="20" width="4" height="4" fill="#be5a73"/>
<rect x="44" y="24" width="4" height="4" fill="#d25a78"/>
<rect x="44" y="28" width="4" height="4" fill="#ea5a7e"/>
<rect x="44" y="32" width="4" height="4" fill="#f07896"/>
<rect x="44" y="36" width="4" height="4" fill="#f591aa"/>
</svg>